<svg width="192" height="192" viewBox="0 0 192 192" fill="none" xmlns="http://www.w3.org/2000/svg">
<rect x="192" width="192" height="192" rx="32" transform="rotate(90 192 0)" fill="#0A0A0A"/>
<path fill-rule="evenodd" clip-rule="evenodd" d="M97.9874 78.3878C97.0171 77.8323 96.532 77.5546 96 77.5546C95.468 77.5546 94.9828 77.8323 94.0126 78.3878L79.625 86.625L93.9874 94.8478C94.9694 95.41 95.4605 95.6911 95.7302 96.1564C96 96.6217 96 97.1875 96 98.3191V114.75L110.362 106.527C111.344 105.965 111.835 105.684 112.105 105.219C112.375 104.753 112.375 104.188 112.375 103.056V88.9441C112.375 87.8125 112.375 87.2467 112.105 86.7814C111.835 86.3161 111.344 86.035 110.362 85.4728L97.9874 78.3878Z" fill="#FAFAFA"/>
<path d="M159.487 134.652C160.469 134.09 160.96 133.809 161.23 133.344C161.5 132.878 161.5 132.313 161.5 131.181V96V60.8191C161.5 59.6875 161.5 59.1217 161.23 58.6564C160.96 58.1911 160.469 57.91 159.487 57.3478L128.75 39.75L97.9874 22.1378C97.0171 21.5823 96.532 21.3046 96 21.3046C95.468 21.3046 94.9829 21.5823 94.0126 22.1378L69.3133 36.2787C66.6213 37.8199 65.2753 38.5905 65.2753 39.75C65.2753 40.9095 66.6213 41.6801 69.3133 43.2213L79.625 49.125L96 58.5L126.737 76.0978C127.719 76.66 128.21 76.9411 128.48 77.4064C128.75 77.8717 128.75 78.4375 128.75 79.5691V96V105.375V114.75V145.351C128.75 148.419 128.75 149.953 129.747 150.531C130.744 151.109 132.075 150.346 134.737 148.822L159.487 134.652Z" fill="#FAFAFA"/>
<path d="M63.25 152.25L94.0126 169.862C94.9828 170.418 95.468 170.695 96 170.695C96.532 170.695 97.0171 170.418 97.9874 169.862L110.362 162.777C111.344 162.215 111.835 161.934 112.105 161.469C112.375 161.003 112.375 160.437 112.375 159.306V131.024C112.375 127.956 112.375 126.422 111.378 125.844C110.381 125.266 109.05 126.029 106.388 127.553L97.9874 132.362C97.0171 132.918 96.532 133.195 96 133.195C95.468 133.195 94.9829 132.918 94.0126 132.362L79.625 124.125L65.2626 115.902C64.2806 115.34 63.7895 115.059 63.5198 114.594C63.25 114.128 63.25 113.563 63.25 112.431V96V86.625V79.5691C63.25 78.4375 63.25 77.8717 63.5198 77.4064C63.7895 76.9411 64.2806 76.66 65.2626 76.0978L73.5617 71.3463C76.2537 69.8051 77.5997 69.0345 77.5997 67.875C77.5997 66.7155 76.2537 65.9449 73.5617 64.4037L71.4375 63.1875L48.8624 50.2628C47.8921 49.7073 47.407 49.4296 46.875 49.4296C46.343 49.4296 45.8579 49.7073 44.8876 50.2628L32.5126 57.3478C31.5306 57.91 31.0395 58.1911 30.7698 58.6564C30.5 59.1217 30.5 59.6875 30.5 60.8191V96V114.75V131.181C30.5 132.313 30.5 132.878 30.7698 133.344C31.0395 133.809 31.5306 134.09 32.5126 134.652L46.875 142.875L63.25 152.25Z" fill="#0A0A0A"/>
<path d="M79.625 86.625V103.056C79.625 104.188 79.625 104.753 79.8948 105.219C80.1645 105.684 80.6556 105.965 81.6376 106.527L96 114.75M79.625 86.625L94.0126 78.3878C94.9828 77.8323 95.468 77.5546 96 77.5546C96.532 77.5546 97.0171 77.8323 97.9874 78.3878L110.362 85.4728C111.344 86.035 111.835 86.3161 112.105 86.7814C112.375 87.2467 112.375 87.8125 112.375 88.9441V103.056C112.375 104.188 112.375 104.753 112.105 105.219C111.835 105.684 111.344 105.965 110.362 106.527L96 114.75M79.625 86.625L93.9874 94.8478C94.9694 95.41 95.4605 95.6911 95.7302 96.1564C96 96.6217 96 97.1875 96 98.3191V114.75M161.5 96V131.181C161.5 132.313 161.5 132.878 161.23 133.344C160.96 133.809 160.469 134.09 159.487 134.652L134.737 148.822C132.075 150.346 130.744 151.109 129.747 150.531C128.75 149.953 128.75 148.419 128.75 145.351V114.75V105.375V96V79.5691C128.75 78.4375 128.75 77.8717 128.48 77.4064C128.21 76.9411 127.719 76.66 126.737 76.0978L96 58.5L79.625 49.125L69.3133 43.2213C66.6213 41.6801 65.2753 40.9095 65.2753 39.75C65.2753 38.5905 66.6213 37.8199 69.3133 36.2787L94.0126 22.1378C94.9829 21.5823 95.468 21.3046 96 21.3046C96.532 21.3046 97.0171 21.5823 97.9874 22.1378L128.75 39.75L159.487 57.3478C160.469 57.91 160.96 58.1911 161.23 58.6564C161.5 59.1217 161.5 59.6875 161.5 60.8191V96ZM63.25 152.25L94.0126 169.862C94.9828 170.418 95.468 170.695 96 170.695C96.532 170.695 97.0171 170.418 97.9874 169.862L110.362 162.777C111.344 162.215 111.835 161.934 112.105 161.469C112.375 161.003 112.375 160.437 112.375 159.306V131.024C112.375 127.956 112.375 126.422 111.378 125.844C110.381 125.266 109.05 126.029 106.388 127.553L97.9874 132.362C97.0171 132.918 96.532 133.195 96 133.195C95.468 133.195 94.9829 132.918 94.0126 132.362L79.625 124.125L65.2626 115.902C64.2806 115.34 63.7895 115.059 63.5198 114.594C63.25 114.128 63.25 113.563 63.25 112.431V96V86.625V79.5691C63.25 78.4375 63.25 77.8717 63.5198 77.4064C63.7895 76.9411 64.2806 76.66 65.2626 76.0978L73.5617 71.3463C76.2537 69.8051 77.5997 69.0345 77.5997 67.875C77.5997 66.7155 76.2537 65.9449 73.5617 64.4037L71.4375 63.1875L48.8624 50.2628C47.8921 49.7073 47.407 49.4296 46.875 49.4296C46.343 49.4296 45.8579 49.7073 44.8876 50.2628L32.5126 57.3478C31.5306 57.91 31.0395 58.1911 30.7698 58.6564C30.5 59.1217 30.5 59.6875 30.5 60.8191V96V114.75V131.181C30.5 132.313 30.5 132.878 30.7698 133.344C31.0395 133.809 31.5306 134.09 32.5126 134.652L46.875 142.875L63.25 152.25Z" stroke="#FAFAFA" stroke-width="4"/>
</svg>
